<svg width="54" height="48" viewBox="0 0 54 48" fill="none" xmlns="http://www.w3.org/2000/svg">
<path fill-rule="evenodd" clip-rule="evenodd" d="M54 48L54 26.1709H44.1957C44.2754 21.7487 44.5543 18.3719 45.0326 16.0402C45.5109 13.7085 46.4475 11.9598 47.8424 10.794C49.2373 9.62814 51.2101 8.68342 53.7609 7.9598V0C39.2536 2.09045 32 9.60804 32 22.5528L32 48H54ZM23 48L23 25.3333L11.871 25.3333C12.1183 19.4343 13.0045 15.3333 14.5296 13.0303C16.0547 10.7273 18.8781 9.21212 23 8.48485V0C14.8387 0.727273 8.96505 3.23232 5.37903 7.51515C1.79301 11.798 0 18.5051 0 27.6364L0 48H23Z" fill="#252B39"/>
</svg>
